<svg xmlns="http://www.w3.org/2000/svg" version="1.1" xmlns:xlink="http://www.w3.org/1999/xlink" width="512" height="512" x="0" y="0" viewBox="0 0 511.999 511.999" style="enable-background:new 0 0 512 512" xml:space="preserve"><g><path d="M403.434 304.095c-13.629-8.456-28.548-14.75-44.34-18.709-31.464-7.889-66.396-8.053-109.936-.514l-3.301.571a8.286 8.286 0 0 0-6.877 8.165v50.951c0 2.327-1.569 3.466-2.244 3.848-.674.38-2.459 1.138-4.453-.059a3.803 3.803 0 0 0-.166-.097L18.654 226.655c-1.877-1.166-2.083-3.008-2.083-3.752 0-.743.206-2.586 2.083-3.752L232.119 97.555l.165-.096c1.997-1.2 3.78-.441 4.454-.059.675.381 2.244 1.521 2.244 3.848v50.949a8.285 8.285 0 0 0 7.072 8.196c3.346.496 6.693.993 10.102 1.502 21.8 3.088 43.837 8.193 65.496 15.172a8.286 8.286 0 0 0 5.081-15.773c-22.555-7.268-45.52-12.587-68.191-15.798l-2.988-.445v-43.804c0-7.665-3.984-14.496-10.654-18.271-6.64-3.758-14.502-3.673-21.056.219L10.348 204.811l-.166.097C3.806 208.738 0 215.465 0 222.904s3.806 14.164 10.183 17.994c.054.033.109.066.166.097L223.84 362.609c3.342 1.985 7.025 2.981 10.713 2.981 3.543 0 7.09-.92 10.344-2.76 6.673-3.775 10.655-10.606 10.655-18.271v-43.961c39.515-6.517 71.219-6.233 99.511.861 14.128 3.543 27.462 9.167 39.636 16.717 3.884 2.412 8.996 1.215 11.408-2.674a8.282 8.282 0 0 0-2.673-11.407z" fill="#000000" opacity="1" data-original="#000000"></path><path d="M466.715 254.807c-25.313-33.664-61.994-61.609-106.073-80.812a8.287 8.287 0 0 0-6.617 15.193c41.461 18.062 75.849 44.197 99.446 75.579 29.503 39.239 44.653 90.894 41.565 141.718l-.009.144c-.304 4.799-4.393 8.585-9.175 8.585-.109 0-.218-.002-.328-.005l-.61-.023c-4.085-.148-7.62-2.988-8.597-6.915l-.116-.458c-5.713-21.914-14.85-42.131-27.162-60.091a154.63 154.63 0 0 0-18.026-21.745 8.283 8.283 0 0 0-11.717-.014 8.283 8.283 0 0 0-.014 11.717 138.041 138.041 0 0 1 16.089 19.408c11.227 16.376 19.568 34.849 24.789 54.877l.081.317c2.75 11.045 12.651 19.048 24.104 19.464l.567.021c.326.012.648.018.971.018 13.624 0 24.818-10.416 25.687-24.145l.009-.145c3.32-54.699-13.032-110.35-44.864-152.688z" fill="#000000" opacity="1" data-original="#000000"></path></g></svg>