<svg id="Capa_1" enable-background="new 0 0 512.051 512.051" height="512" viewBox="0 0 512.051 512.051" width="512" xmlns="http://www.w3.org/2000/svg"><g><path d="m132.939 264.88c-4.882-4.882-4.882-12.827 0-17.709l52.497-52.497c2.929-2.93 2.929-7.678 0-10.607-2.929-2.928-7.678-2.928-10.606 0l-52.497 52.497c-10.731 10.731-10.731 28.192 0 38.924l159.25 159.251c1.465 1.464 3.384 2.196 5.304 2.196 1.919 0 3.839-.732 5.304-2.196 2.929-2.93 2.929-7.678 0-10.607z"/><path d="m308.759 256.026 37.49-94.068c1.534-3.848-.343-8.21-4.19-9.743-3.842-1.532-8.21.342-9.743 4.19l-38.597 96.845c-.711 1.782-.711 3.77 0 5.553l88.049 220.928c2.786 6.991-.625 12.382-4.745 15.096-4.121 2.714-10.42 3.72-15.743-1.604l-47.09-47.09c-2.93-2.928-7.678-2.928-10.607 0-2.929 2.93-2.929 7.678 0 10.607l47.091 47.09c5.438 5.437 12.323 8.224 19.322 8.223 5.214 0 10.492-1.548 15.276-4.698 11.206-7.379 15.397-20.712 10.43-33.176z"/><path d="m203.132 173.871c1.919 0 3.839-.732 5.303-2.196l152.845-152.844c5.321-5.323 11.619-4.318 15.742-1.604 4.12 2.714 7.531 8.104 4.745 15.096l-37.442 93.948c-1.534 3.848.343 8.21 4.19 9.743 3.843 1.533 8.21-.341 9.743-4.19l37.442-93.948c4.968-12.464.776-25.797-10.43-33.176-11.207-7.381-25.109-5.963-34.599 3.524l-152.842 152.843c-2.929 2.93-2.929 7.678 0 10.607 1.465 1.464 3.384 2.197 5.303 2.197z"/></g></svg>