<svg id="Capa_1" enable-background="new 0 0 512.052 512.052" height="512" viewBox="0 0 512.052 512.052" width="512" xmlns="http://www.w3.org/2000/svg"><g><path d="m389.713 236.565-120.728-120.729c-2.929-2.928-7.678-2.928-10.606 0-2.929 2.93-2.929 7.678 0 10.607l120.728 120.729c2.365 2.365 3.668 5.51 3.668 8.854 0 3.345-1.303 6.489-3.668 8.854l-34.678 34.678c-2.929 2.93-2.929 7.678 0 10.607 1.464 1.464 3.384 2.196 5.303 2.196s3.839-.732 5.303-2.196l34.678-34.678c5.199-5.198 8.062-12.11 8.062-19.462-.001-7.35-2.864-14.262-8.062-19.46z"/><path d="m322.428 321.559-171.663 171.664c-5.322 5.32-11.622 4.317-15.742 1.604-4.121-2.714-7.532-8.104-4.746-15.096l19.887-49.897c1.533-3.848-.343-8.21-4.19-9.743-3.849-1.534-8.209.342-9.744 4.19l-19.887 49.897c-4.967 12.465-.775 25.797 10.432 33.177 4.785 3.15 10.061 4.697 15.276 4.697 6.998 0 13.885-2.786 19.321-8.223l171.663-171.663c2.929-2.93 2.929-7.678 0-10.607-2.929-2.928-7.678-2.928-10.607 0z"/><path d="m203.286 256.026-54.918 137.798c-1.533 3.848.343 8.21 4.19 9.743.911.363 1.851.535 2.774.535 2.98 0 5.799-1.788 6.97-4.726l56.025-140.574c.71-1.782.71-3.77 0-5.553l-88.049-220.927c-2.786-6.991.625-12.382 4.746-15.096s10.419-3.72 15.742 1.604l85.613 85.612c2.929 2.928 7.678 2.928 10.606 0 2.929-2.93 2.929-7.678 0-10.607l-85.613-85.611c-9.488-9.488-23.393-10.905-34.597-3.525-11.207 7.38-15.399 20.712-10.432 33.177z"/></g></svg>