<?xml version="1.0" encoding="iso-8859-1"?>
<!-- Generator: Adobe Illustrator 19.0.0, SVG Export Plug-In . SVG Version: 6.00 Build 0)  -->
<svg version="1.1" id="Capa_1" xmlns="http://www.w3.org/2000/svg" xmlns:xlink="http://www.w3.org/1999/xlink" x="0px" y="0px"
	 viewBox="0 0 512 512" style="enable-background:new 0 0 512 512;" xml:space="preserve">
<g>
	<g>
		<path d="M270.807,132.974c-3.235-2.612-7.978-2.109-10.592,1.129L53.444,390.196c-0.031,0.038-0.056,0.08-0.086,0.119
			c-0.054,0.069-0.103,0.142-0.156,0.213c-0.131,0.181-0.252,0.366-0.365,0.556c-0.044,0.075-0.09,0.149-0.133,0.226
			c-0.143,0.261-0.275,0.527-0.386,0.802c-0.008,0.021-0.014,0.042-0.022,0.063c-0.102,0.26-0.186,0.525-0.259,0.794
			c-0.023,0.086-0.043,0.173-0.063,0.26c-0.053,0.231-0.095,0.464-0.128,0.7c-0.007,0.052-0.022,0.101-0.028,0.155l-11.694,103.86
			c-0.485,4.313,1.241,8.517,4.62,11.245c2.288,1.847,5.078,2.81,7.918,2.81c1.354,0,2.719-0.219,4.047-0.666l99.063-33.316
			c0.048-0.016,0.092-0.041,0.141-0.058c0.227-0.081,0.448-0.173,0.666-0.275c0.079-0.037,0.158-0.073,0.235-0.114
			c0.252-0.13,0.498-0.27,0.735-0.428c0.015-0.01,0.031-0.018,0.045-0.028c0.247-0.167,0.481-0.353,0.707-0.549
			c0.064-0.056,0.125-0.115,0.189-0.173c0.164-0.152,0.32-0.311,0.471-0.478c0.058-0.065,0.117-0.128,0.174-0.195
			c0.032-0.038,0.067-0.072,0.099-0.11l37.945-46.996c2.611-3.236,2.105-7.978-1.131-10.591c-3.237-2.612-7.978-2.109-10.592,1.129
			l-33.214,41.135l-41.174-33.244l-41.174-33.245l202.041-250.233C274.548,140.329,274.043,135.587,270.807,132.974z
			 M101.607,438.764l36.354,29.352l-82.439,27.725l9.731-86.43L101.607,438.764z"/>
	</g>
</g>
<g>
	<g>
		<path d="M460.929,54.689L401.34,6.578c-12.737-10.285-31.466-8.289-41.752,4.449l-44.201,54.745l-25.261,31.286
			c-2.613,3.237-2.108,7.979,1.129,10.592c3.236,2.612,7.978,2.109,10.592-1.129l20.53-25.427l41.174,33.244l41.174,33.245
			l-189.17,234.292c-2.613,3.237-2.108,7.979,1.129,10.592c1.393,1.125,3.065,1.672,4.727,1.672c2.197,0,4.377-0.958,5.865-2.801
			l193.901-240.152l44.201-54.745C475.661,83.703,473.666,64.973,460.929,54.689z M453.657,86.978l-39.47,48.884l-41.174-33.244
			l-41.174-33.245l39.47-48.884c5.065-6.275,14.294-7.259,20.568-2.191l59.588,48.112C457.74,71.475,458.723,80.703,453.657,86.978z
			"/>
	</g>
</g>
<g>
</g>
<g>
</g>
<g>
</g>
<g>
</g>
<g>
</g>
<g>
</g>
<g>
</g>
<g>
</g>
<g>
</g>
<g>
</g>
<g>
</g>
<g>
</g>
<g>
</g>
<g>
</g>
<g>
</g>
</svg>
