<svg id="Capa_1" enable-background="new 0 0 512 512" height="512" viewBox="0 0 512 512" width="512" xmlns="http://www.w3.org/2000/svg"><g><path d="m401.88 45.626c-3.403-2.364-8.076-1.521-10.438 1.88-2.363 3.402-1.521 8.075 1.88 10.438 64.919 45.101 103.678 119.14 103.678 198.056 0 64.373-25.068 124.894-70.588 170.412-45.518 45.52-106.039 70.588-170.412 70.588s-124.894-25.068-170.412-70.588c-45.52-45.518-70.588-106.039-70.588-170.412s25.068-124.894 70.588-170.412c45.518-45.52 106.039-70.588 170.412-70.588 39.162 0 78.06 9.622 112.486 27.825 3.664 1.938 8.201.537 10.136-3.124 1.937-3.662.538-8.2-3.124-10.136-36.579-19.341-77.9-29.565-119.498-29.565-68.38 0-132.667 26.629-181.02 74.98-48.351 48.353-74.98 112.64-74.98 181.02s26.629 132.667 74.98 181.02c48.353 48.351 112.64 74.98 181.02 74.98s132.667-26.629 181.02-74.98c48.351-48.353 74.98-112.64 74.98-181.02 0-83.827-41.166-162.472-110.12-210.374z"/><path d="m96.193 96.193c-42.685 42.685-66.193 99.439-66.193 159.807s23.508 117.122 66.193 159.807 99.439 66.193 159.807 66.193 117.122-23.508 159.807-66.193 66.193-99.439 66.193-159.807-23.508-117.122-66.193-159.807c-42.685-42.685-99.439-66.193-159.807-66.193s-117.122 23.508-159.807 66.193zm370.807 159.807c0 56.361-21.947 109.348-61.801 149.199-39.851 39.854-92.838 61.801-149.199 61.801s-109.348-21.947-149.199-61.801c-39.854-39.851-61.801-92.838-61.801-149.199s21.947-109.348 61.801-149.199c39.851-39.854 92.838-61.801 149.199-61.801s109.348 21.947 149.199 61.801c39.854 39.851 61.801 92.838 61.801 149.199z"/><path d="m284.606 228.457c0-13.017-10.59-23.606-23.606-23.606h-43.555c-13.017 0-23.606 10.59-23.606 23.606s10.59 23.605 23.606 23.605h9.948v79.897h-9.948c-13.017 0-23.606 10.59-23.606 23.606s10.59 23.605 23.606 23.605h5.889c4.143 0 7.5-3.357 7.5-7.5 0-4.221-3.547-7.667-7.8-7.5h-5.589c-4.746 0-8.606-3.86-8.606-8.605 0-4.746 3.86-8.606 8.606-8.606h17.448c4.143 0 7.5-3.357 7.5-7.5v-94.897c0-4.143-3.357-7.5-7.5-7.5h-17.448c-4.746 0-8.606-3.86-8.606-8.605 0-4.746 3.86-8.606 8.606-8.606h43.555c4.746 0 8.606 3.86 8.606 8.606v111.003c0 4.143 3.357 7.5 7.5 7.5h17.448c4.746 0 8.606 3.86 8.606 8.606 0 4.745-3.86 8.605-8.606 8.605h-41.01c-4.21-.127-7.712 3.287-7.712 7.5 0 4.143 3.357 7.5 7.5 7.5h41.222c13.017 0 23.606-10.59 23.606-23.605 0-13.017-10.59-23.606-23.606-23.606h-9.948z"/><path d="m222.567 158.26c0 18.436 14.997 33.434 33.432 33.434 18.436 0 33.434-14.998 33.434-33.434 0-18.435-14.998-33.432-33.434-33.432-18.435 0-33.432 14.997-33.432 33.432zm51.866 0c0 10.164-8.27 18.434-18.434 18.434-10.163 0-18.432-8.27-18.432-18.434 0-10.163 8.269-18.432 18.432-18.432 10.164 0 18.434 8.269 18.434 18.432z"/></g></svg>