<svg id="Capa_1" enable-background="new 0 0 512 512" height="512" viewBox="0 0 512 512" width="512" xmlns="http://www.w3.org/2000/svg"><g><path d="m488.969 186.384h-5.098c-4.142 0-7.5 3.357-7.5 7.5s3.358 7.5 7.5 7.5h5.098c4.428 0 8.031 3.603 8.031 8.031s-3.603 8.031-8.031 8.031h-46.594c-4.428 0-8.031-3.603-8.031-8.031s3.603-8.031 8.031-8.031h6.496c4.142 0 7.5-3.357 7.5-7.5s-3.358-7.5-7.5-7.5h-6.496c-12.7 0-23.031 10.332-23.031 23.031s10.332 23.031 23.031 23.031h46.594c12.7 0 23.031-10.332 23.031-23.031s-10.332-23.031-23.031-23.031z"/><path d="m426.817 148.826 32.947-32.946c8.98-8.98 8.98-23.592 0-32.572-8.979-8.979-23.591-8.98-32.571 0l-32.947 32.946c-8.98 8.98-8.98 23.592 0 32.572 8.978 8.978 23.591 8.98 32.571 0zm-21.964-21.965 32.947-32.946c1.517-1.518 3.534-2.353 5.679-2.353s4.162.835 5.679 2.353c1.517 1.517 2.352 3.533 2.352 5.679s-.835 4.162-2.352 5.679l-32.947 32.946c-1.517 1.518-3.534 2.353-5.679 2.353s-4.162-.835-5.679-2.353c-1.517-1.517-2.352-3.533-2.352-5.679s.835-4.162 2.352-5.679z"/><path d="m426.817 270.005c-8.979-8.978-23.591-8.979-32.571 0-8.98 8.98-8.98 23.592 0 32.572l32.947 32.946c8.98 8.979 23.591 8.979 32.571 0 8.98-8.98 8.98-23.592 0-32.572zm22.341 54.912c-1.517 1.518-3.534 2.353-5.679 2.353-2.146 0-4.162-.835-5.679-2.353l-32.947-32.946c-1.517-1.517-2.352-3.533-2.352-5.679s.835-4.162 2.352-5.679c1.517-1.518 3.534-2.353 5.679-2.353 2.146 0 4.162.835 5.679 2.353l32.947 32.946c1.517 1.517 2.352 3.533 2.352 5.679s-.835 4.162-2.352 5.679z"/><path d="m353.153 166.042-11.997-3.999v-82.631c0-9.273-5.322-17.238-13.89-20.787-8.567-3.549-17.962-1.68-24.52 4.877l-15.438 15.437c-22.193 22.193-51.7 34.416-83.085 34.416h-13.791c-4.142 0-7.5 3.357-7.5 7.5s3.358 7.5 7.5 7.5h13.791c35.392 0 68.666-13.782 93.692-38.809l15.438-15.438c3.287-3.289 7.086-2.076 8.173-1.626 1.086.45 4.63 2.279 4.63 6.929v269.262c0 4.649-3.544 6.479-4.63 6.929-1.085.45-4.885 1.662-8.173-1.625l-15.438-15.439c-25.027-25.025-58.3-38.808-93.692-38.808-10.258 0-39.263 0-49.442 0v-171.375h.651c4.142 0 7.5-3.357 7.5-7.5s-3.358-7.5-7.5-7.5h-54.745c-55.514 0-100.687 45.164-100.687 100.688 0 55.514 45.163 100.687 100.688 100.687 15.04 0 28.263 10.146 32.155 24.674l11.468 42.797c1.075 4.01 5.198 6.375 9.186 5.303 4.001-1.072 6.375-5.185 5.303-9.186l-11.468-42.797c-2.143-7.999-6.236-15.081-11.683-20.791h54.899c4.97 18.55 17.549 65.492 21.707 81.01 3.21 11.982 15.57 19.121 27.556 15.911l1.026-.275c3.996-1.07 8.116 1.31 9.187 5.304l2.215 8.271-53.79 14.413c-11.99 3.209-24.346-3.927-27.557-15.91l-2.657-9.915c-1.072-4-5.183-6.378-9.186-5.303-4 1.071-6.375 5.185-5.303 9.186l2.657 9.915c2.593 9.675 8.798 17.762 17.472 22.77 8.684 5.013 18.796 6.337 28.456 3.746l53.789-14.412c3.871-1.037 7.106-3.519 9.109-6.989s2.536-7.513 1.499-11.382l-2.216-8.271c-3.211-11.982-15.575-19.123-27.558-15.91l-1.025.274c-3.995 1.07-8.115-1.309-9.185-5.304l-9.977-37.236 8.269-2.216c5.806-1.555 10.658-5.277 13.663-10.482s3.803-11.269 2.248-17.074l-1.259-4.7c17.777 5.602 34.063 15.438 47.621 28.996l15.438 15.438c6.58 6.58 15.98 8.413 24.52 4.877 8.567-3.549 13.89-11.514 13.89-20.787v-82.631l11.997-4c20.693-6.896 34.597-26.187 34.597-48-.001-21.814-13.904-41.104-34.598-48.002zm-328.975 86.563h29.916c4.142 0 7.5-3.357 7.5-7.5s-3.358-7.5-7.5-7.5h-35.8c-1.481-5.172-2.488-10.543-2.968-16.062h38.768c4.142 0 7.5-3.357 7.5-7.5s-3.358-7.5-7.5-7.5h-38.768c.481-5.519 1.487-10.89 2.968-16.062h35.8c4.142 0 7.5-3.357 7.5-7.5s-3.358-7.5-7.5-7.5h-29.916c14.136-27.932 43.123-47.125 76.51-47.125h39.094v171.374h-39.094c-33.387 0-62.375-19.193-76.51-47.125zm202.28 76.127c.519 1.935.252 3.956-.749 5.691-1.002 1.734-2.619 2.976-4.554 3.494l-8.27 2.216-6.803-25.389c5.754.089 11.44.588 17.026 1.485zm121.952-80.92-7.253 2.418v-72.376l7.254 2.418c14.559 4.853 24.34 18.424 24.34 33.771s-9.782 28.917-24.341 33.769z"/><path d="m310.094 307.23v-186.375c0-4.143-3.358-7.5-7.5-7.5s-7.5 3.357-7.5 7.5v186.375c0 4.143 3.358 7.5 7.5 7.5s7.5-3.357 7.5-7.5z"/><path d="m116.219 283.668c4.142 0 7.5-3.357 7.5-7.5v-124.25c0-4.143-3.358-7.5-7.5-7.5s-7.5 3.357-7.5 7.5v124.25c0 4.142 3.358 7.5 7.5 7.5z"/></g></svg>