<svg id="Capa_1" enable-background="new 0 0 512 512" height="512" viewBox="0 0 512 512" width="512" xmlns="http://www.w3.org/2000/svg"><g><path d="m44.648 74.27c-24.619 0-44.648 20.029-44.648 44.648s20.029 44.648 44.648 44.648 44.648-20.029 44.648-44.648c-.001-24.619-20.029-44.648-44.648-44.648zm0 74.295c-16.348 0-29.648-13.299-29.648-29.647s13.3-29.648 29.648-29.648 29.648 13.3 29.648 29.647c-.001 16.349-13.3 29.648-29.648 29.648z"/><path d="m484.5 74.27h-264.665c-4.142 0-7.5 3.358-7.5 7.5s3.358 7.5 7.5 7.5h264.665c6.893 0 12.5 5.607 12.5 12.5v34.295c0 6.893-5.607 12.5-12.5 12.5h-339.939c-6.892 0-12.5-5.607-12.5-12.5v-34.295c0-6.893 5.608-12.5 12.5-12.5h45.274c4.142 0 7.5-3.358 7.5-7.5s-3.358-7.5-7.5-7.5h-45.274c-15.163 0-27.5 12.336-27.5 27.5v34.295c0 15.164 12.337 27.5 27.5 27.5h339.939c15.164 0 27.5-12.336 27.5-27.5v-34.295c0-15.164-12.336-27.5-27.5-27.5z"/><path d="m44.648 211.353c-24.619 0-44.648 20.028-44.648 44.647s20.029 44.648 44.648 44.648 44.648-20.029 44.648-44.648-20.029-44.647-44.648-44.647zm0 74.295c-16.348 0-29.648-13.3-29.648-29.648s13.3-29.647 29.648-29.647 29.648 13.3 29.648 29.647c-.001 16.348-13.3 29.648-29.648 29.648z"/><path d="m484.5 211.353h-339.939c-15.163 0-27.5 12.337-27.5 27.5v34.295c0 15.163 12.337 27.5 27.5 27.5h213.03c4.142 0 7.5-3.358 7.5-7.5s-3.358-7.5-7.5-7.5h-213.03c-6.892 0-12.5-5.608-12.5-12.5v-34.295c0-6.893 5.608-12.5 12.5-12.5h339.939c6.893 0 12.5 5.607 12.5 12.5v34.295c0 6.892-5.607 12.5-12.5 12.5h-96.909c-4.142 0-7.5 3.358-7.5 7.5s3.358 7.5 7.5 7.5h96.909c15.164 0 27.5-12.337 27.5-27.5v-34.295c0-15.164-12.336-27.5-27.5-27.5z"/><path d="m44.648 348.435c-24.619 0-44.648 20.028-44.648 44.648 0 24.619 20.029 44.647 44.648 44.647s44.648-20.029 44.648-44.647c-.001-24.62-20.029-44.648-44.648-44.648zm0 74.295c-16.348 0-29.648-13.3-29.648-29.647 0-16.348 13.3-29.648 29.648-29.648s29.648 13.3 29.648 29.648c-.001 16.347-13.3 29.647-29.648 29.647z"/><path d="m484.5 348.435h-339.939c-15.163 0-27.5 12.336-27.5 27.5v34.295c0 15.164 12.337 27.5 27.5 27.5h20.058c4.142 0 7.5-3.358 7.5-7.5s-3.358-7.5-7.5-7.5h-20.058c-6.892 0-12.5-5.607-12.5-12.5v-34.295c0-6.893 5.608-12.5 12.5-12.5h339.939c6.893 0 12.5 5.607 12.5 12.5v34.295c0 6.893-5.607 12.5-12.5 12.5h-289.881c-4.142 0-7.5 3.358-7.5 7.5s3.358 7.5 7.5 7.5h289.881c15.164 0 27.5-12.336 27.5-27.5v-34.295c0-15.164-12.336-27.5-27.5-27.5z"/></g></svg>