<svg id="Capa_1" enable-background="new 0 0 510.601 510.601" viewBox="0 0 510.601 510.601" xmlns="http://www.w3.org/2000/svg"><g><path d="m254.601 178.801c-42.182 0-76.5 34.318-76.5 76.5s34.318 76.5 76.5 76.5c11 0 21.631-2.291 31.597-6.81 3.772-1.71 5.444-6.155 3.734-9.927s-6.155-5.444-9.928-3.734c-8.008 3.63-16.555 5.471-25.403 5.471-33.911 0-61.5-27.589-61.5-61.5s27.589-61.5 61.5-61.5 61.5 27.589 61.5 61.5c0 13.19-4.109 25.757-11.884 36.339-2.453 3.338-1.734 8.032 1.604 10.485 3.338 2.451 8.032 1.734 10.484-1.604 9.68-13.175 14.796-28.812 14.796-45.22 0-42.182-34.317-76.5-76.5-76.5z"/><path d="m494.142 207.906c-2.571-3.248-7.288-3.797-10.535-1.226-3.248 2.571-3.797 7.288-1.227 10.536 8.649 10.928 13.221 24.098 13.221 38.085 0 33.911-27.589 61.5-61.5 61.5-33.917 0-61.51-27.589-61.51-61.5s27.593-61.5 61.51-61.5c8.058 0 15.885 1.534 23.266 4.56 3.836 1.573 8.213-.263 9.784-4.095 1.571-3.833-.262-8.213-4.095-9.784-9.195-3.77-18.937-5.681-28.955-5.681-42.188 0-76.51 34.318-76.51 76.5s34.322 76.5 76.51 76.5c42.183 0 76.5-34.318 76.5-76.5 0-17.402-5.691-33.791-16.459-47.395z"/><path d="m75.101 178.801c-36.166 0-67.686 25.68-74.947 61.062-.833 4.058 1.781 8.022 5.839 8.854 4.058.835 8.022-1.781 8.854-5.839 5.836-28.438 31.176-49.078 60.253-49.078 33.917 0 61.51 27.589 61.51 61.5s-27.593 61.5-61.51 61.5c-26.87 0-50.418-17.182-58.597-42.755-1.263-3.945-5.482-6.12-9.428-4.859-3.945 1.262-6.121 5.483-4.859 9.428 10.174 31.812 39.463 53.186 72.884 53.186 42.187 0 76.51-34.318 76.51-76.5s-34.321-76.499-76.509-76.499z"/></g><g/><g/><g/><g/><g/><g/><g/><g/><g/><g/><g/><g/><g/><g/><g/></svg>