<svg id="Capa_1" enable-background="new 0 0 512 512" height="512" viewBox="0 0 512 512" width="512" xmlns="http://www.w3.org/2000/svg"><g><path d="m132.608 384.748 248.632-248.633c9.175-9.175 9.175-24.104 0-33.279l-34.01-34.01c-4.444-4.444-10.354-6.893-16.64-6.893s-12.195 2.448-16.64 6.893l-248.632 248.633c-4.844 4.844-8.853 10.406-11.916 16.533l-52.61 105.22c-1.444 2.887-.878 6.375 1.405 8.657 1.44 1.44 3.359 2.197 5.306 2.197 1.138 0 2.286-.259 3.352-.792l105.221-52.611c6.126-3.062 11.688-7.071 16.532-11.915zm-12.109-55.181c-2.929-2.929-7.678-2.929-10.606 0l-11.7 11.7-17.735-17.735 193.451-193.451 17.735 17.735-159.078 159.078c-2.929 2.929-2.929 7.677 0 10.606 1.464 1.464 3.384 2.197 5.303 2.197s3.839-.732 5.303-2.197l159.078-159.077 17.735 17.735-193.451 193.451-17.735-17.735 11.7-11.7c2.929-2.929 2.929-7.677 0-10.607zm176.082-222.158 46.076 46.076-12.066 12.066-46.076-46.076zm27.977-27.976c1.612-1.611 3.754-2.499 6.033-2.499s4.421.888 6.033 2.499l34.01 34.01c3.327 3.326 3.327 8.74 0 12.066l-17.37 17.37-46.076-46.076zm-280.994 307.775 19.294 19.294-38.588 19.294zm33.436 12.223-26.365-26.365 16.183-32.366c1.048-2.096 2.249-4.101 3.58-6.014l44.982 44.982c-1.913 1.331-3.917 2.531-6.013 3.58z"/><path d="m504.5 435.066h-40.08c-9.125 0-16.548-7.424-16.548-16.549v-10.903c0-10.752-5.39-20.655-14.419-26.493-9.028-5.838-20.272-6.688-30.076-2.276l-101.014 45.456c-3.312 1.491-6.962 1.215-10.014-.758-3.051-1.973-4.8-5.188-4.8-8.82 0-8.763-4.413-16.805-11.804-21.512s-16.544-5.306-24.484-1.6l-55.948 26.109c-24.317 11.348-51.354 17.346-78.187 17.346h-45.497c-4.142 0-7.5 3.358-7.5 7.5s3.358 7.5 7.5 7.5h45.497c29.01 0 58.24-6.484 84.529-18.753l55.948-26.109c3.32-1.548 6.995-1.309 10.084.659 3.089 1.967 4.861 5.196 4.861 8.859 0 8.691 4.357 16.697 11.656 21.416 7.298 4.72 16.389 5.408 24.313 1.841l101.014-45.456c5.22-2.349 10.969-1.914 15.776 1.194 4.806 3.107 7.563 8.173 7.563 13.896v10.903c0 17.396 14.152 31.549 31.548 31.549h40.082c4.142 0 7.5-3.358 7.5-7.5s-3.358-7.499-7.5-7.499z"/></g></svg>