<svg id="Capa_1" enable-background="new 0 0 512.001 512.001" height="512" viewBox="0 0 512.001 512.001" width="512" xmlns="http://www.w3.org/2000/svg"><g><path d="m15.085 214.144c7.417 5.689 17.012 6.273 25.04 1.642 5.195-2.997 8.924-7.857 10.499-13.688 2.213-8.208 4.946-16.364 8.122-24.241 2.911-7.22 1.955-15.306-2.556-21.631-4.483-6.286-11.756-9.808-19.471-9.404-8.7.447-16.443 5.96-19.728 14.043-3.908 9.619-7.258 19.561-9.957 29.552-2.419 8.971.666 18.063 8.051 23.727zm6.431-19.821c2.539-9.399 5.691-18.758 9.371-27.812 1.102-2.711 3.693-4.56 6.602-4.709h.001c2.578 0 4.973 1.01 6.488 3.134 1.544 2.166 1.856 4.831.856 7.312-3.399 8.432-6.324 17.161-8.691 25.942-.532 1.969-1.78 3.604-3.527 4.612-4.055 2.35-7.455.167-8.4-.559-.941-.721-3.912-3.422-2.7-7.92zm417.752-116.337c-2.885-2.973-7.633-3.043-10.605-.158-2.973 2.884-3.044 7.633-.159 10.605 44.171 45.517 68.498 105.563 68.498 169.076 0 57.964-20.728 114.064-58.364 157.967-37.236 43.435-88.627 72.354-144.704 81.431-4.541.735-8.768-2.912-8.768-7.495 0-3.558 2.144-6.808 6.234-7.464 46.535-7.467 89.022-29.083 122.871-62.513 21.347-21.092 38.093-45.857 49.772-73.608 11.683-27.759 17.687-57.061 17.847-87.092.322-61.181-23.27-118.698-66.427-161.956-21.175-21.225-45.923-37.806-73.556-49.283-27.636-11.479-56.832-17.302-86.773-17.307-.015 0-.024 0-.039 0-60.477 0-117.368 23.572-160.187 66.374-4.23 4.228-10.849.483-12.08-2.28-.488-1.097-1.821-4.936 1.508-8.266 45.796-45.803 106.414-71.01 170.742-71.01h.364c54.056.079 105.152 17.631 147.765 50.758 3.27 2.545 7.982 1.952 10.524-1.317 2.542-3.271 1.952-7.982-1.318-10.524-45.262-35.189-99.534-53.832-156.948-53.916-68.482-.057-133.016 26.676-181.736 75.404-6.605 6.606-8.414 16.406-4.607 24.967 6.269 14.097 25.419 17.76 36.39 6.794 39.989-39.973 93.108-61.984 149.583-61.984h.036c27.958.005 55.218 5.441 81.022 16.159s48.915 26.203 68.69 46.024c40.312 40.406 62.347 94.133 62.046 151.283-.298 56.031-23.32 110.744-63.161 150.108-31.611 31.22-71.275 51.404-114.687 58.37-10.766 1.728-18.877 11.392-18.877 22.277 0 13.571 12.68 24.485 26.163 22.303 59.573-9.643 114.157-40.354 153.697-86.476 39.966-46.619 61.977-106.187 61.977-167.729 0-67.434-25.83-131.19-72.733-179.522zm-394.358 206.166c-.932-7.511-5.536-14.007-12.316-17.377-6.791-3.376-14.763-3.125-21.325.674-7.868 4.556-12.221 13.344-11.092 22.391 3.87 30.986 13.228 60.662 27.814 88.199 3.893 7.358 11.181 11.841 19.496 11.992 8.279.151 15.771-4.072 19.927-11.279 3.907-6.774 4.076-14.903.449-21.75-12.05-22.697-19.772-47.208-22.953-72.85zm9.51 87.107c-2.008 3.481-5.341 3.792-6.66 3.775-1.333-.024-4.635-.464-6.512-4.013-13.733-25.927-22.543-53.866-26.187-83.041-.382-3.056 1.08-6.019 3.722-7.549 2.227-1.291 4.827-1.371 7.133-.225 2.295 1.141 3.792 3.252 4.107 5.793 3.407 27.462 11.68 53.717 24.587 78.029 1.176 2.219 1.102 4.988-.19 7.231zm224.081-8.305v-84.446h84.446c12.599.053 23.067-10.989 22.475-23.578-.565-12.013-10.624-21.422-22.898-21.422h-84.022v-84.022c0-12.274-9.41-22.332-21.421-22.897-6.215-.299-12.114 1.905-16.607 6.191-4.43 4.227-6.971 10.161-6.971 16.282v84.446h-84.022c-12.274 0-22.333 9.409-22.898 21.422-.591 12.563 9.8 23.642 22.475 23.578h25.219c4.142 0 7.5-3.357 7.5-7.5s-3.358-7.5-7.5-7.5h-25.219c-4.229.021-7.69-3.648-7.491-7.873.185-3.93 3.736-7.127 7.915-7.127h84.522c7.995 0 14.5-6.505 14.5-14.5v-84.946c0-2.07.826-3.998 2.325-5.428 1.497-1.428 3.461-2.164 5.548-2.062 3.93.185 7.127 3.735 7.127 7.914v84.522c0 7.995 6.505 14.5 14.5 14.5h84.522c4.179 0 7.73 3.197 7.915 7.127.198 4.208-3.272 7.895-7.491 7.873h-84.946c-7.995 0-14.5 6.505-14.5 14.5v84.946c.021 4.202-3.654 7.688-7.873 7.49-3.93-.185-7.127-3.735-7.127-7.914v-84.522c0-7.995-6.505-14.5-14.5-14.5h-24.727c-4.142 0-7.5 3.357-7.5 7.5s3.358 7.5 7.5 7.5h24.227v84.022c0 12.274 9.41 22.332 21.421 22.897 12.528.59 23.638-9.873 23.576-22.473zm-57.953 104.084c-40.063-6.562-77.236-24.549-107.498-52.019-5.122-4.647-11.96-6.703-18.765-5.633-6.756 1.061-12.591 5.074-16.009 11.013-5.265 9.147-3.448 20.907 4.32 27.962 36.882 33.501 82.229 55.401 131.174 63.34 13.268 2.152 25.896-8.171 26.222-21.734.261-10.846-8.461-21.131-19.444-22.929zm-4.413 29.851c-46.036-7.467-88.725-28.087-123.453-59.631-2.588-2.351-3.179-6.294-1.405-9.376 1.563-2.716 4.014-3.47 5.336-3.677 2.295-.36 4.614.339 6.356 1.922 32.409 29.418 72.229 48.684 115.156 55.714 3.614.592 6.954 4.365 6.872 7.766-.111 4.562-4.371 8.01-8.862 7.282z"/></g></svg>