<svg id="Capa_1" enable-background="new 0 0 512.028 512.028" height="512" viewBox="0 0 512.028 512.028" width="512" xmlns="http://www.w3.org/2000/svg"><g><path d="m505.437 240.104-116.725-116.72c-6.558-6.557-15.952-8.425-24.521-4.876-8.567 3.549-13.89 11.514-13.89 20.788v30.532l-46.444-46.442c-6.558-6.557-15.955-8.427-24.521-4.877-8.568 3.549-13.891 11.514-13.891 20.788v37.469h-147.351c-4.143 0-7.5 3.358-7.5 7.5s3.357 7.5 7.5 7.5h154.853c4.143 0 7.5-3.358 7.5-7.5v-44.969c0-4.65 3.544-6.479 4.631-6.93s4.885-1.661 8.174 1.625l116.725 116.72c2.925 2.924 2.925 7.683.001 10.607l-116.728 116.719c-3.286 3.288-7.086 2.076-8.173 1.625s-4.631-2.279-4.631-6.93v-44.969c0-4.142-3.357-7.5-7.5-7.5h-60c-4.143 0-7.5 3.358-7.5 7.5s3.357 7.5 7.5 7.5h52.5v37.469c0 9.273 5.322 17.239 13.891 20.788 2.871 1.189 5.834 1.771 8.753 1.77 5.792 0 11.407-2.287 15.767-6.647l46.445-46.443v30.532c0 9.273 5.322 17.239 13.89 20.788 2.871 1.189 5.834 1.771 8.754 1.77 5.791 0 11.407-2.287 15.767-6.647l116.725-116.719c4.25-4.25 6.591-9.9 6.591-15.911-.001-6.01-2.342-11.661-6.592-15.91zm-10.606 21.214-116.724 116.719c-3.29 3.289-7.089 2.076-8.175 1.626s-4.63-2.28-4.63-6.93v-45.531l55.281-55.278c8.771-8.773 8.771-23.047-.001-31.82l-55.28-55.278v-45.531c0-4.65 3.544-6.479 4.63-6.93 1.086-.449 4.886-1.662 8.175 1.625l116.725 116.72c1.416 1.417 2.196 3.3 2.196 5.303 0 2.005-.781 3.888-2.197 5.305z"/><path d="m182.947 320.264h-160.389c-4.65 0-6.479-3.544-6.93-4.63-.45-1.086-1.662-4.885 1.627-8.173l46.143-46.144c2.929-2.929 2.929-7.678 0-10.606l-46.144-46.144c-3.288-3.288-2.076-7.087-1.626-8.173s2.279-4.63 6.93-4.63h65.536c4.143 0 7.5-3.358 7.5-7.5s-3.357-7.5-7.5-7.5h-65.536c-9.273 0-17.239 5.322-20.788 13.89-3.549 8.567-1.68 17.962 4.877 24.52l40.841 40.84-40.839 40.84c-6.558 6.557-8.428 15.953-4.879 24.52 3.549 8.568 11.515 13.89 20.788 13.89h160.389c4.143 0 7.5-3.358 7.5-7.5s-3.358-7.5-7.5-7.5z"/></g></svg>