<svg xmlns="http://www.w3.org/2000/svg" width="489" height="483" fill="none" viewBox="0 0 489 483">
  <path fill="#E4E9F3" fill-opacity=".8" d="M121.54 51.195c17.935-9.663 36.424-17.875 55.52-24.917a399.623 399.623 0 0 0 13.206-5.16C249.448-2.69 249.448-2.69 272.532 5.593c17.185 7.697 25.799 18.801 36.376 33.896.318.454.674.887 1.07 1.274 9.717 9.49 22.811 12.635 35.652 16.008 34.492 9.23 34.492 9.23 42.878 22.454 2.588 5.082 4.176 9.606 2.597 15.197a8.09 8.09 0 0 1-.529 1.34c-8.471 17.272-6.696 12.588-22.38 27.682-.676.651-1.284 1.413-1.703 2.254-8.345 16.761 11.503 27.012 31.586 20.027 22.783-6.906 53.57-7.547 74.72 3.775 7.866 4.946 11.552 11.166 14.188 19.865 3.132 14.866.539 28.425-6.761 41.663-5.046 7.639-10.791 14.675-16.542 21.789-15.231 17.978-15.727 18.564-19.825 39.35-.282 1.428-.263 2.909.111 4.316.46 1.73.748 2.327 1.923 4.763a177.343 177.343 0 0 0 5.421 11.244c5.354 10.234 6.684 17.816 3.651 29.182-14.422 38.052-53.955 64.341-85.972 86.605-14.829 10.337-29.23 21.098-43.423 32.301C284.186 473.215 231.94 449 176 474.5c-30.5 11-58.807 14.131-77.966-9.975-4.3-6.117-7.506-12.261-10.265-19.204-10.885-24.867-7.57-53.086-6.625-79.483-.124-4.333-1.705-5.847-4.523-9.107-20.585-28.472-63.051-34.972-73.417-69.043a13.917 13.917 0 0 0-.487-1.339c-9.576-22.721 8.6-57.357 30.52-62.91 13.154-3.477 22.861-8.943 30.296-20.697 3.774-7.037 6.14-11.989 4.238-20.103-2.233-6.155-7.7-7.413-13.48-9.347-8.716-3.034-15.714-5.638-21.132-12.88a7.873 7.873 0 0 1-1.418-3.293c-8.184-44.753 57.497-87.19 89.799-105.924Z"/>
</svg>
