<svg xmlns="http://www.w3.org/2000/svg" width="511" height="487" fill="none" viewBox="0 0 511 487">
  <path fill="#DAE9DA" d="M3.467 256.475a100 100 0 0 1 23.109-90.71L130.573 51.071a100 100 0 0 1 87.679-31.9l27.509 3.777a100.001 100.001 0 0 0 43.649-3.694l44.046-13.877c46.512-14.655 96.81 6.381 119.041 49.784 2.332 4.553 5.01 8.92 8.009 13.062l31.063 42.896a100 100 0 0 1 15.942 83.217L471.51 336.391a99.995 99.995 0 0 1-33.113 52.42l-49.887 41.357a100 100 0 0 1-49.148 21.932L185 475l-82.967 10.971c-69.27 9.16-121.602-61.415-92.715-125.038a89.008 89.008 0 0 0 5.461-57.748l-11.312-46.71Z"/>
  <path fill="#DAE9DA" d="M201 301c0 22.091-17.685 40-39.5 40S122 323.091 122 301s17.685-40 39.5-40 39.5 17.909 39.5 40Z"/>
</svg>
